inDegrees=yes
name=ik_lifting_orientations
DataType=double
version=3
OpenSimVersion=4.5-2024-01-10-34fd6af
endheader
time	pelvis_tilt	pelvis_list	pelvis_rotation	pelvis_tx	pelvis_ty	pelvis_tz	hip_flexion_r	hip_adduction_r	hip_rotation_r	knee_angle_r	knee_angle_r_beta	ankle_angle_r	subtalar_angle_r	mtp_angle_r	hip_flexion_l	hip_adduction_l	hip_rotation_l	knee_angle_l	knee_angle_l_beta	ankle_angle_l	subtalar_angle_l	mtp_angle_l	lumbar_extension	lumbar_bending	lumbar_rotation	arm_flex_r	arm_add_r	arm_rot_r	elbow_flex_r	pro_sup_r	wrist_flex_r	wrist_dev_r	arm_flex_l	arm_add_l	arm_rot_l	elbow_flex_l	pro_sup_l	wrist_flex_l	wrist_dev_l
1.62	0.1280311559157148	-0.8784912804170205	-89.9722316145857	0	0.9400000003403366	0	44.53683939130224	-10.41208533358937	0	59.50648444801418	1.038584079904648	-5.124409947407315	0	0	44.53683939130224	-10.41208533358937	0	59.50648444801418	1.038584079904648	-5.124409947407315	0	0	-0.8838998310090669	-0.1420707858321601	0.03654763512313258	39.75394256572041	11.62095459578166	9.447323754179967	13.02956799552272	-5.933201883838989	0	0	0	-10.27825122607951	0	77.53301397454335	5.932991651166968	0	0
1.63	0.06638758416117331	-1.129211618913377	-89.9455799560583	0	0.9400000003403366	0	44.53705974496231	-10.41139819456486	0	59.50666830953458	1.038587288893547	-5.124139226543068	0	0	44.53705974496231	-10.41139819456486	0	59.50666830953458	1.038587288893547	-5.124139226543068	0	0	-1.125865792731142	-0.06176927483259839	0.01287305158874347	37.88285890507343	11.18244935030135	10.06378357020824	12.99507551902798	-5.931231561467635	0	0	0	-10.27940139225639	0	77.53180763208528	5.931021328781267	0	0
1.64	0.129918016046835	-1.128776786063601	-89.94638757047456	0	0.9400000003403366	0	44.53723633889733	-10.41084846500119	0	59.50681575550347	1.038589862311172	-5.123922766487423	0	0	44.53723633889733	-10.41084846500119	0	59.50681575550347	1.038589862311172	-5.123922766487423	0	0	-1.12854225488181	-0.1325545706749593	0.02600609181536135	36.07287561297497	10.65962866899744	10.600260887743	13.11670201992432	-5.929651991912342	0	0	0	-10.28032370642675	0	77.53084085806206	5.929441759214464	0	0
1.65	0.07304392309341939	-1.320612842043302	-89.92872808218806	0	0.9400000003403366	0	44.53740263802989	-10.41033124254819	0	59.50695460743349	1.038592285734524	-5.123719187812275	0	0	44.53740263802989	-10.41033124254819	0	59.50695460743349	1.038592285734524	-5.123719187812275	0	0	-1.322879189737156	-0.07539410716762864	0.004037964626147974	34.38176995460556	10.45212664146059	11.04545130970814	12.79435715234726	-5.928164375997127	0	-2.155227684594804e-35	0	-10.28119237073853	0	77.52993044455222	5.92795414328841	0	-2.155227684594804e-35
1.66	0.08072997079696367	-2.318145444969786	-89.93893667171055	0	0.9400000003403366	0	44.53752574934472	-10.40994920870911	0	59.50705752402019	1.038594081967817	-5.123568914547588	0	0	44.53752574934472	-10.40994920870911	0	59.50705752402019	1.038594081967817	-5.123568914547588	0	0	-2.326404050491784	-0.1011383477232744	0.007622241151182695	32.6574797288432	9.987694006722162	11.38513191295329	12.56556434142616	-5.927062515462126	0	-3.891590206017285e-52	0	-10.28183606273929	0	77.52925646753546	5.926852282745383	0	-3.891590206017285e-52
1.67	0.008249907768199935	-2.56309968100897	-89.90721369154296	0	0.9400000003403366	0	44.53769494997017	-10.40942382320334	0	59.50719882763651	1.038596548181167	-5.123362262992285	0	0	44.53769494997017	-10.40942382320334	0	59.50719882763651	1.038596548181167	-5.123362262992285	0	0	-2.565995182653958	-0.006238215558787562	-0.01822185738327536	30.87197765593249	9.432031647480443	11.76031606342225	12.5325188274225	-5.925548626264169	0	0	0	-10.28272019412733	0	77.52833017168281	5.925338393536398	0	0
1.68	0.1341352353684678	-2.555909803919731	-89.92593382161584	0	0.9400000003403366	0	44.53787042542113	-10.40887943872026	0	59.5073453810378	1.038599106020549	-5.123148220795776	0	0	44.53787042542113	-10.40887943872026	0	59.5073453810378	1.038599106020549	-5.123148220795776	0	0	-2.555139505435238	-0.1329476866692248	0.008387774351045974	29.23253231797905	8.939837081796952	12.19995461449682	12.592092655919	-5.923978432744752	0	0	0	-10.28363726805125	0	77.52736952516044	5.92376820000554	0	0
1.69	0.1377150629185304	-2.506370328737972	-89.94230642262518	0	0.9400000003403366	0	44.53801683559225	-10.40842596145166	0	59.50746774195248	1.038601241621386	-5.122970014266207	0	0	44.53801683559225	-10.40842596145166	0	59.50746774195248	1.038601241621386	-5.122970014266207	0	0	-2.509315520151151	-0.1466536021488917	0.01363846477870665	27.46889269542797	8.369003808448863	12.65847614322164	12.81658753171334	-5.922667891152856	0	0	0	-10.28440289549749	0	77.52656799955577	5.922457658404099	0	0
1.7	0.1306388201216755	-2.219625593151231	-89.95487549944461	0	0.9400000003403366	0	44.53814953996032	-10.40801539188321	0	59.50757869022361	1.038603178034017	-5.12280873121923	0	0	44.53814953996032	-10.40801539188321	0	59.50757869022361	1.038603178034017	-5.12280873121923	0	0	-2.214586669535057	-0.1461470038097827	0.0227508458745272	25.6131684174057	7.770055616586545	13.06933660804426	12.72595834354943	-5.921479790059728	0	0	0	-10.28509710362536	0	77.52584150787389	5.92126955730232	0	0
1.71	0.128791718218365	-1.94148824991401	-89.96077647614452	0	0.9400000003403366	0	44.53827963411477	-10.40761320977913	0	59.5076874686758	1.038605076576163	-5.122650792739838	0	0	44.53827963411477	-10.40761320977913	0	59.5076874686758	1.038605076576163	-5.122650792739838	0	0	-1.937578242464038	-0.1472028418452243	0.02547777544996409	23.72065456635138	7.201728424565053	13.56276475479822	12.65532327691772	-5.920314937347718	0	0	0	-10.28577777631146	0	77.52512930658271	5.920104704581828	0	0
1.72	0.1866764692896718	-1.241960504647837	-89.98652682348749	0	0.9400000003403366	0	44.5384128269385	-10.40720190702175	0	59.5077988788392	1.038607021050334	-5.122489335196537	0	0	44.5384128269385	-10.40720190702175	0	59.5077988788392	1.038607021050334	-5.122489335196537	0	0	-1.236271095545488	-0.1995964596708552	0.05631368106899948	21.83585006953015	6.673063958728171	13.99047562244613	12.59784591169337	-5.919122098826429	0	0	0	-10.28647491229395	0	77.52440014282121	5.918911866051854	0	0
1.73	0.08133103785794674	-1.184086582872764	-89.93483757127731	0	0.9400000003403366	0	44.53859450689821	-10.40664038726178	0	59.50795064471647	1.038609669864585	-5.122268917958473	0	0	44.53859450689821	-10.40664038726178	0	59.50795064471647	1.038609669864585	-5.122268917958473	0	0	-1.181971796066519	-0.06678356563704127	0.01837931367597246	20.0842844760571	6.325989559508231	14.24072892025744	12.40430262983693	-5.917495715671723	0	0	0	-10.28742504311976	0	77.52340553428853	5.917285482885303	0	0
1.74	-0.005313753545227734	-1.381718997496242	-89.94078670853186	0	0.9400000003403366	0	44.53870184829132	-10.40630933807833	0	59.50804041481316	1.038611236648342	-5.122139047208854	0	0	44.53870184829132	-10.40630933807833	0	59.50804041481316	1.038611236648342	-5.122139047208854	0	0	-1.392827948862953	-0.007335950769027631	0.01725113497635795	18.75486115035523	6.08218948990915	14.24131733558858	11.80197520485753	-5.91653432534884	0	0	0	-10.28798692080179	0	77.52281789494056	5.916324092555418	0	0
1.75	0.07790603579478936	-2.202156968956853	-89.93953848289505	0	0.9400000003403366	0	44.53885491855512	-10.40583716181928	0	59.50816833797914	1.038613469328778	-5.12195383750814	0	0	44.53885491855512	-10.40583716181928	0	59.50816833797914	1.038613469328778	-5.12195383750814	0	0	-2.210058322537299	-0.07627513996179709	0.006853587833935832	17.28577618512843	5.773646732307864	14.34581183702374	11.4675400059762	-5.915163647598546	0	0	0	-10.28878784129721	0	77.52197991268703	5.914953414795138	0	0
1.76	0.1375066072434411	-2.073200360293982	-89.95290767085878	0	0.9400000003403366	0	44.53901353650227	-10.40534868338321	0	59.5083010004841	1.038615784726283	-5.121762329742851	0	0	44.53901353650227	-10.40534868338321	0	59.5083010004841	1.038615784726283	-5.121762329742851	0	0	-2.079055901768017	-0.1440905801033401	0.02761970280806763	15.57504542203779	5.257505814040582	14.57984226546234	12.32382272144048	-5.913742777063838	0	0	0	-10.28961834133646	0	77.52111156201447	5.913532544250077	0	0
1.77	0.1790825508371229	-1.182062568790668	-89.98270025547276	0	0.9400000003403366	0	44.53914465827334	-10.40494547058368	0	59.508410735336	1.038617699960753	-5.121604322732222	0	0	44.53914465827334	-10.40494547058368	0	59.508410735336	1.038617699960753	-5.121604322732222	0	0	-1.185280176041211	-0.1853775388798832	0.05639657514941282	14.04648109263588	4.824764086673365	14.85103555989392	11.87883271987394	-5.912567855906242	0	0	0	-10.29030525384098	0	77.520393740233	5.912357623083924	0	0
1.78	0.1523670993985278	-0.6204282056064209	-89.98023802295651	0	0.9400000003403366	0	44.53930950515039	-10.40443829911592	0	59.50854855989969	1.03862010545318	-5.121405595974387	0	0	44.53930950515039	-10.40443829911592	0	59.50854855989969	1.03862010545318	-5.121405595974387	0	0	-0.6203593328246546	-0.1567465890459146	0.05362910082780244	12.46164932688148	4.233057928187034	14.94036168432894	11.66526892634442	-5.911091180856715	0	0	0	-10.29116833665026	0	77.51949129026848	5.910880948023634	0	0
1.79	0.1163827138495915	-0.05388353928753227	-89.98656523113173	0	0.9400000003403366	0	44.53943701666963	-10.4040466703472	0	59.50865525934316	1.038621967709778	-5.121252220764348	0	0	44.53943701666963	-10.4040466703472	0	59.50865525934316	1.038621967709778	-5.121252220764348	0	0	-0.05014301372326124	-0.125414223229324	0.05750345823619839	10.9811915389154	3.783535184825103	15.14990842410569	11.26803399344278	-5.909948513318446	0	0	0	-10.29183641181189	0	77.51879323368037	5.90973828047705	0	0
1.8	0.123776253978984	-0.7643108621474554	-89.97809472751271	0	0.9400000003403366	0	44.53955619512833	-10.40368083052874	0	59.50875497071658	1.038623708001546	-5.121108986829828	0	0	44.53955619512833	-10.40368083052874	0	59.50875497071658	1.038623708001546	-5.121108986829828	0	0	-0.7763940318577434	-0.145945763242026	0.05007080085618708	9.340993627641387	3.44249807860534	15.26799684881977	11.20336816694054	-5.908880513006187	0	0	0	-10.29246081929248	0	77.51814079639472	5.908670280157011	0	0
1.81	0.07952193796340846	-0.7540361834788664	-89.94874166331451	0	0.9400000003403366	0	44.53969651620436	-10.40325019616367	0	59.50887234321296	1.038625756538059	-5.120940416927024	0	0	44.53969651620436	-10.40325019616367	0	59.50887234321296	1.038625756538059	-5.120940416927024	0	0	-0.7544313494605446	-0.07990584712723642	0.02233524413149394	7.796671481453343	2.979733082522209	15.38686605774664	11.34419660069198	-5.907623088276595	0	0	0	-10.2931959410375	0	77.51737261491857	5.907412855418265	0	0
1.82	0.1252179205773649	-0.6903007043076419	-89.96841608595899	0	0.9400000003403366	0	44.53982081064155	-10.40286914589413	0	59.50897634533805	1.038627571717571	-5.120791311105885	0	0	44.53982081064155	-10.40286914589413	0	59.50897634533805	1.038627571717571	-5.120791311105885	0	0	-0.6905716375009995	-0.1410113607746841	0.0413929653836433	6.395639762899862	2.668733009589391	15.35932448531105	11.34002621182817	-5.906509069957906	0	0	0	-10.2938473190267	0	77.5166921716133	5.90629883709146	0	0
